<svg version="1.1" id="Layer_1" xmlns="http://www.w3.org/2000/svg" xmlns:xlink="http://www.w3.org/1999/xlink" x="0px" y="0px"
	 width="100%" viewBox="0 0 1024 1024" enable-background="new 0 0 1024 1024" xml:space="preserve">
<path fill="currentColor" opacity="1.000000" stroke="none" 
	d="
M709.230591,566.215698 
	C731.744263,546.820374 751.998169,525.702637 771.890991,504.121857 
	C805.309387,467.867767 838.749146,431.531799 880.268311,403.967804 
	C910.435242,383.940430 942.928040,369.455780 978.417480,361.906128 
	C979.720886,361.628845 981.032410,361.389557 982.334290,361.105743 
	C986.670349,360.160614 990.322205,361.385101 992.988464,364.881531 
	C995.784729,368.548401 995.183044,372.351105 992.843689,376.052185 
	C980.483154,395.607117 971.973633,416.934906 963.915588,438.492950 
	C959.069458,451.458008 953.535645,464.149261 946.011536,475.832001 
	C931.668701,498.101959 912.502319,514.427063 887.185120,523.074097 
	C882.943359,524.522888 879.491394,523.247803 877.123230,519.756348 
	C874.785706,516.309814 874.853210,512.510803 877.341431,509.022095 
	C878.518860,507.371216 880.187866,506.219574 882.091431,505.476501 
	C910.371765,494.437500 928.555664,473.528046 940.351379,446.228882 
	C949.124451,425.925171 955.905273,404.804352 966.644897,384.106628 
	C955.605164,387.125183 945.911255,390.374878 936.484497,394.418732 
	C902.879822,408.834320 873.482483,429.549774 846.609314,454.138733 
	C820.753052,477.797211 797.507385,503.945160 773.752258,529.622192 
	C739.308350,566.852600 701.102112,599.573975 657.817322,626.261536 
	C612.705444,654.075623 564.012146,673.039062 512.620544,685.161987 
	C474.924988,694.054077 436.624756,698.664917 397.851410,699.500244 
	C384.855469,699.780212 371.896149,700.224609 358.906006,699.409180 
	C350.576141,698.886169 347.141388,694.808960 349.030609,686.572815 
	C350.876831,678.524231 354.730164,671.310181 359.087891,664.370361 
	C368.265137,649.755127 380.785980,638.348206 394.165100,627.731323 
	C417.687653,609.065063 443.549225,593.740540 467.753906,576.049988 
	C482.847290,565.018677 497.803558,553.787659 509.484894,539.001343 
	C520.608765,524.920715 526.924255,509.184235 523.933167,490.751953 
	C520.821716,471.577759 508.268616,458.833527 488.963104,455.341522 
	C446.057495,447.580688 409.914673,471.888702 401.004364,514.493958 
	C400.799835,515.471863 400.556061,516.442505 400.301117,517.408813 
	C398.747223,523.299011 394.298767,526.300720 388.837860,525.153564 
	C383.781433,524.091309 380.760590,519.541565 381.885193,513.635681 
	C383.916321,502.969177 386.992401,492.582184 392.077332,482.919769 
	C414.674316,439.980804 469.813171,426.657501 506.927338,441.578735 
	C527.603210,449.891174 542.435425,471.102448 543.450867,493.369568 
	C544.622803,519.070374 534.618591,540.039856 517.594299,558.268250 
	C503.178192,573.703979 485.949402,585.761536 468.877197,597.968262 
	C445.045929,615.007874 419.840881,630.108154 397.292755,648.966003 
	C387.092743,657.496582 374.793793,672.425842 371.572662,681.378235 
	C497.802521,682.635742 611.611328,648.843567 709.230591,566.215698 
z"/>
<path fill="currentColor" opacity="1.000000" stroke="none" 
	d="
M405.892700,338.864136 
	C424.800629,326.306122 443.479065,314.168884 464.454254,305.921112 
	C488.949829,296.289032 514.284119,290.337799 540.269470,286.690063 
	C556.629211,284.393585 573.141785,284.369598 589.558838,282.959686 
	C593.704529,282.603668 597.507263,283.741425 599.594971,287.986420 
	C601.647034,292.158966 600.579651,295.872833 597.701233,299.043640 
	C594.570374,302.492401 591.059692,305.593170 587.789734,308.919464 
	C574.681946,322.252869 570.414734,338.468414 572.559265,356.637878 
	C573.403564,363.790710 571.037170,368.256927 565.351196,369.147766 
	C559.354614,370.087219 554.838745,366.402130 553.828186,359.485626 
	C551.060730,340.545319 555.207520,323.126801 565.530151,307.086823 
	C566.216675,306.020020 567.513550,305.245392 567.385254,303.326660 
	C559.940491,302.470551 552.535583,303.576385 545.211792,304.468719 
	C506.761627,309.153412 470.244812,319.745056 437.059967,340.402466 
	C426.321838,347.086945 416.243103,354.800415 404.812134,360.419586 
	C394.303070,365.585571 383.176971,368.534821 371.668610,369.043976 
	C276.585693,373.250885 191.737747,406.025574 114.574387,460.503723 
	C96.856133,473.012970 79.609337,486.124847 64.814438,502.083130 
	C56.402729,511.156311 50.006435,521.375854 50.257030,534.506470 
	C50.451389,544.690430 54.766151,553.231262 60.904968,560.891357 
	C76.348793,580.162109 95.646942,594.909119 117.110352,606.722778 
	C137.475571,617.931885 157.144180,615.385803 175.646210,601.738037 
	C185.588348,594.404358 193.026459,584.938904 199.513626,574.507935 
	C197.259979,572.445618 194.794724,573.427795 192.594360,573.097412 
	C188.766312,572.522522 185.775635,570.842285 185.351349,566.736267 
	C184.910370,562.468567 187.395172,559.915833 191.320786,558.656738 
	C209.894699,552.699280 233.953598,568.978760 234.929062,588.252563 
	C235.134384,592.309387 232.739456,594.792969 228.929810,595.763733 
	C224.768311,596.824219 221.798538,595.131653 219.951981,591.346130 
	C218.739532,588.860657 218.926529,585.735291 216.549393,583.715210 
	C214.115036,584.163147 213.692398,586.411804 212.665207,587.977600 
	C202.712753,603.148804 190.421051,615.901611 174.016937,624.021240 
	C151.451675,635.190613 128.825409,634.302856 106.939842,622.278137 
	C83.808311,609.568909 63.524128,593.092590 46.595222,572.797791 
	C37.682953,562.113464 31.945263,549.849487 31.557131,535.514954 
	C31.139080,520.075317 36.543530,506.729309 46.274307,495.142792 
	C60.295105,478.448029 77.198563,464.854462 94.631195,451.963409 
	C134.367661,422.579193 177.095413,398.535950 223.428818,381.159668 
	C255.316620,369.200836 288.008270,360.064484 321.755005,355.136841 
	C337.231079,352.877075 352.806183,351.361176 368.470093,350.847931 
	C381.903656,350.407745 394.369965,346.620941 405.892700,338.864136 
z"/>
<path fill="currentColor" opacity="1.000000" stroke="none" 
	d="
M346.791931,413.673309 
	C354.820709,412.645721 362.382538,411.280762 370.002197,410.756805 
	C377.974701,410.208588 382.462158,416.453888 379.651794,423.944336 
	C357.928619,481.843140 345.560242,542.152771 333.536804,602.547424 
	C330.030914,620.157959 327.189667,637.893433 323.416077,655.460388 
	C310.510742,715.538330 255.771515,752.276001 195.225250,741.558044 
	C161.217026,735.537964 134.914001,718.608887 118.017365,688.083130 
	C112.812019,678.679138 109.807365,668.450256 107.968994,657.884399 
	C107.313980,654.119812 107.720825,650.514587 110.442902,647.585083 
	C112.934982,644.903076 116.126778,644.113159 119.594482,645.104736 
	C123.551582,646.236450 125.503151,649.258057 126.206596,653.118347 
	C127.795151,661.835815 129.904831,670.438110 134.065720,678.286743 
	C147.756607,704.111816 169.634476,718.765747 198.095215,723.506958 
	C220.742096,727.279602 242.679016,724.723999 262.726440,712.660889 
	C285.268127,699.097046 298.554443,678.482727 304.492676,653.446655 
	C309.747040,631.293884 313.191772,608.717346 317.715851,586.384705 
	C327.261749,539.261902 337.235352,492.236511 351.770355,446.322235 
	C353.264374,441.602844 355.524475,437.104889 356.310852,431.576904 
	C350.535858,431.264435 345.218079,432.510345 339.895630,433.297180 
	C319.632629,436.292542 299.373047,439.433716 280.189270,447.037537 
	C264.177551,453.384094 250.432999,462.654205 241.915802,478.276947 
	C238.930389,483.752899 237.148666,489.571594 236.153473,495.719666 
	C235.054764,502.507233 230.572235,506.094879 224.952286,505.074799 
	C219.364029,504.060455 216.468918,499.237671 217.663589,492.450836 
	C221.963104,468.025604 235.617615,450.255554 256.807251,437.967194 
	C277.951202,425.705353 301.414703,420.821838 325.113403,416.783234 
	C332.162537,415.581970 339.269775,414.721985 346.791931,413.673309 
z"/>
<path fill="currentColor" opacity="1.000000" stroke="none" 
	d="
M538.486816,374.398987 
	C586.820984,384.954407 631.914124,402.301910 673.605896,428.489777 
	C702.214966,446.459961 728.414978,467.470306 754.040039,489.311401 
	C757.327026,492.113037 759.816711,495.247650 759.389465,499.979797 
	C758.831238,506.162689 753.296204,509.751923 747.546814,507.326263 
	C742.541626,505.214569 738.829224,501.252472 734.851074,497.737549 
	C694.870117,462.411377 651.384949,432.548492 601.584900,412.648224 
	C566.455872,398.610565 529.900513,390.074554 492.441803,385.217651 
	C487.823303,384.618835 483.185181,384.136475 478.593567,383.374481 
	C472.918549,382.432678 469.907227,378.890625 470.283386,373.972046 
	C470.673523,368.870483 474.548157,365.373260 480.334259,365.784698 
	C494.119202,366.764984 507.817841,368.564209 521.408264,371.117249 
	C526.968323,372.161713 532.523621,373.231171 538.486816,374.398987 
z"/>
<path fill="currentColor" opacity="1.000000" stroke="none" 
	d="
M828.252136,562.746704 
	C854.292419,589.855835 883.457275,612.426331 915.760620,630.857361 
	C930.121521,639.051208 945.730957,644.528503 961.424011,649.648682 
	C963.164124,650.216370 964.960327,650.624268 966.673279,651.260498 
	C972.258545,653.334778 974.934570,658.394165 973.232910,663.519897 
	C971.664368,668.244629 967.243958,670.355286 961.352783,668.715942 
	C940.406433,662.887390 920.439453,654.726257 901.547913,643.863708 
	C865.106201,622.910034 833.796021,595.657043 804.724731,565.616516 
	C798.589172,559.276428 792.548401,552.842651 786.559875,546.363281 
	C784.500488,544.135071 782.859619,541.513245 783.165344,538.298523 
	C783.515564,534.615784 784.988220,531.468384 788.740479,530.101807 
	C792.750427,528.641296 796.396545,529.642212 799.285828,532.629395 
	C805.538757,539.093933 811.606018,545.737610 817.812927,552.247253 
	C821.136719,555.733215 824.592712,559.093018 828.252136,562.746704 
z"/>
<path fill="currentColor" opacity="1.000000" stroke="none" 
	d="
M163.887604,517.202637 
	C153.336609,518.368469 145.845673,514.773682 141.708206,506.816956 
	C138.002762,499.691071 139.015640,490.817993 144.211685,484.885376 
	C149.574203,478.762817 158.235519,476.321808 165.470001,478.894318 
	C173.585464,481.780090 179.017883,489.026001 179.264893,497.294220 
	C179.519974,505.832001 175.147720,512.604187 167.091553,516.109680 
	C166.179123,516.506714 165.219528,516.795227 163.887604,517.202637 
z"/>
</svg>