<svg xmlns="http://www.w3.org/2000/svg" xml:space="preserve" viewBox="80 80 864 864"><path fill="#f5f4ed" d="M384.852 638.932c10.357-16.25 24.975-27.602 39.92-38.55 21.231-15.553 43.959-29 64.472-45.565 11.457-9.252 22.384-19.049 28.641-32.832 4.22-9.296 5.997-18.915 3.957-29.164-2.576-12.938-9.963-21.538-22.319-25.879-33.66-11.824-71.05 8.912-79.158 43.863-.488 2.105-.742 4.27-1.306 6.352-1.159 4.274-4.9 6.816-9.061 6.027-4.444-.842-6.754-3.81-6.27-8.22 1.086-9.868 4.164-19.187 9.03-27.834 14.007-24.892 36.36-36.215 63.916-38.383 14.054-1.106 27.699 1.19 39.695 9.19 18.584 12.394 26.07 34.156 20.38 57.732-4.466 18.498-15.684 32.516-29.677 44.572-18.082 15.58-37.974 28.71-57.709 42.056-15.446 10.447-31.076 20.739-43.603 34.85-4.079 4.594-7.852 9.441-10.258 15.136 1.517 2.006 3.519 1.315 5.211 1.25 22.948-.879 45.908-1.54 68.703-4.719 70.002-9.763 133.743-34.771 190.078-77.878 25.897-19.816 48.587-42.932 70.565-66.95 26.762-29.246 53.89-58.223 87.092-80.62 25.42-17.149 52.806-29.617 82.807-36.19 1.138-.248 2.32-.324 3.432-.648 3.982-1.159 7.416-.21 9.728 3.158 2.368 3.449 1.317 6.922-.774 10.264-8.788 14.047-15.242 29.208-21.098 44.641-4.91 12.937-9.895 25.838-17.405 37.558-11.89 18.555-27.88 32.023-48.85 39.344-3.828 1.336-6.557-.041-8.675-2.958-2.252-3.103-1.787-6.285.568-9.194 1.291-1.595 3.082-2.57 4.94-3.306 22.06-8.716 36.496-25.05 46.092-46.172 7.98-17.564 13.559-36.127 23.074-54.215-10.526 2.879-19.644 6.271-28.604 10.224-35.083 15.477-63.682 39.622-90.364 66.564-20.875 21.08-39.997 43.79-61.203 64.553-54.417 53.28-118.132 89.93-192.24 108.163a452 452 0 0 1-80.319 12.253c-17.786 1.1-35.559 2.163-53.393 1-7.498-.488-10.188-3.844-8.43-11.05 1.603-6.568 4.72-12.424 8.415-18.423"/><path fill="#f5f4ed" d="M545.444 323.192c10.926-.701 21.394-1.4 31.87-1.915 3.32-.163 6.19.966 7.928 4.173 1.66 3.064.875 5.713-.905 8.403-2.717 4.106-6.99 6.622-10.176 10.275-9.956 11.414-13.55 24.559-11.302 39.411.735 4.858-1.468 8.618-5.738 9.567-4.34.965-8.45-1.218-9.42-5.971-3.086-15.126-.504-29.434 7.19-42.815.83-1.443 1.73-2.845 2.564-4.287.154-.268.14-.633.301-1.446-7.491-1.136-14.823.327-22.085 1.236-37.592 4.704-71.766 18.135-102.623 40.226-12.667 9.069-27.225 12.713-42.767 13.346-39.126 1.593-76.724 10.541-113.27 24.304-45.36 17.082-86.304 41.663-123.364 72.781-7.517 6.312-14.903 12.836-20.23 21.302-8.288 13.175-8.465 25.706.876 38.181 14.45 19.298 33.122 33.66 54.92 43.811 7.575 3.527 15.807 3.944 23.986 1.939 17.72-4.345 29.04-16.428 38.323-31.218-2.18-1.847-4.328-.92-6.192-1.449-2.949-.837-5.283-2.347-5.443-5.685-.157-3.3 1.868-5.213 4.792-6.24 14.947-5.248 35.09 7.814 36.522 23.655.335 3.7-1.276 6.193-4.79 7.173-3.604 1.005-6.051-.696-7.76-3.852-1.069-1.977-.563-4.74-3.424-6.334-3.998 6.301-8.384 12.287-13.513 17.73-12.12 12.862-26.562 21.105-44.379 22.473-10.885.836-21.284-1.741-30.85-6.809-18.886-10.003-35.54-23.113-49.529-39.19-21.61-24.837-20.534-50.851 2.685-74.228 22.948-23.102 49.535-41.468 77.505-57.855 44.13-25.855 91.437-43.198 141.874-51.792a300 300 0 0 1 41.194-4.14c12.29-.375 23.71-3.26 33.864-10.402 21.263-14.952 43.902-27.098 69.023-34.322 17.005-4.89 34.316-8.071 52.343-10.036"/><path fill="#f5f4ed" d="M385.99 488.802c-9.449 33.229-16.07 66.678-22.702 100.13-3.263 16.462-5.101 33.245-10.085 49.324-11.125 35.892-34.569 58.805-72.04 65.386-38.528 6.766-81.04-9.984-98.874-47.834-3.14-6.664-5.42-13.611-6.596-20.884-1.147-7.087 1.069-11.296 6.17-12.1 4.98-.785 8.11 2.223 9.352 9.264 3.575 20.272 14.324 35.83 31.851 46.206 40.266 23.837 101.69 12.74 116.3-49.352 7.797-33.144 12.876-66.922 20.384-100.167 5.973-26.45 12.396-52.797 21.34-78.447.492-1.412 1.075-2.796.61-4.876-6.07-.692-12.043.985-17.993 1.942-18.906 3.04-37.913 5.977-54.935 15.582-13.838 7.81-23.534 18.892-26.39 35.07-1.102 6.251-4.497 9.063-9.65 8.214-4.534-.748-6.96-4.989-5.85-10.95 2.924-15.701 10.659-28.602 23.21-38.486 16.192-12.75 35.368-18.29 55.145-21.946 14.872-2.75 29.868-4.857 44.846-6.992 10.751-1.532 14.53 3.768 10.65 13.864-5.857 15.236-10.415 30.9-14.743 47.052m144.262-92.208c54.377 10.97 103.11 33.308 146.883 66.67 12.462 9.497 24.377 19.637 36.416 29.637 1.386 1.151 2.716 2.54 3.601 4.088 1.893 3.31 2.043 6.79-.81 9.663-2.818 2.838-6.273 3.197-9.535.859-3.51-2.515-6.852-5.288-10.1-8.14-32.633-28.657-68.03-53.012-108.5-69.374-30.572-12.36-62.415-19.773-95.099-23.751-2.971-.362-5.964-.588-8.914-1.076-4.622-.765-7.143-4.028-6.688-8.394.453-4.356 3.65-6.993 8.411-6.577 14.755 1.288 29.412 3.288 44.335 6.395m316.633 213.495c13.736 7.74 28.093 13.03 42.747 17.56 3.407 1.054 6.085 2.679 7.14 6.26 1.772 6.011-3.568 10.762-10.31 8.893-15.775-4.372-30.905-10.37-45.296-18.24-34.764-19.012-63.794-45.075-90.839-73.6-2.75-2.9-5.608-5.704-8.25-8.699-4.92-5.575-5.345-9.963-1.511-13.577 3.65-3.441 8.359-2.397 13.285 2.913 15.863 17.098 32.016 33.91 50.052 48.763 13.39 11.028 27.621 20.883 42.982 29.727M235.014 500.14c-1.284 10.12-5.506 14.97-14.14 16.684-6.312 1.252-13.878-2.5-17.152-8.616-3.201-5.978-2.895-11.935.986-17.413 3.87-5.464 9.463-7.987 16.079-6.893 6.77 1.12 11.33 5.287 13.426 11.915.398 1.26.523 2.606.8 4.324"/></svg>
