<svg version="1.1" id="Layer_1" xmlns="http://www.w3.org/2000/svg" xmlns:xlink="http://www.w3.org/1999/xlink" x="0px" y="0px"
	 width="100%" viewBox="0 0 1024 1024" enable-background="new 0 0 1024 1024" xml:space="preserve">
<path fill="#ffffff" opacity="1.000000" stroke="none" 
	d="
M384.851624,638.932495 
	C395.208740,622.681335 409.827362,611.330078 424.771973,600.382202 
	C446.003235,584.828918 468.730591,571.381348 489.244415,554.816772 
	C500.701416,545.565430 511.628204,535.768188 517.885437,521.984619 
	C522.105164,512.689453 523.882263,503.070190 521.841980,492.820984 
	C519.266479,479.882965 511.878876,471.282684 499.523254,466.942322 
	C465.863159,455.118103 428.472321,475.854095 420.365204,510.804962 
	C419.876831,512.910400 419.623169,515.074890 419.058716,517.157227 
	C417.900177,521.430664 414.158966,523.972595 409.997925,523.184082 
	C405.553741,522.342041 403.243591,519.374451 403.728790,514.963074 
	C404.814087,505.096039 407.891937,495.776825 412.757446,487.130310 
	C426.764526,462.238312 449.117859,450.914886 476.674255,448.746735 
	C490.728363,447.640930 504.372681,449.936462 516.369202,457.937347 
	C534.952637,470.331177 542.439575,492.092621 536.748413,515.668701 
	C532.283020,534.166626 521.065369,548.184753 507.072235,560.241272 
	C488.989899,575.820984 469.097656,588.950500 449.363037,602.297424 
	C433.916534,612.744263 418.287048,623.035645 405.760071,637.146790 
	C401.681305,641.741333 397.908447,646.588318 395.502045,652.282654 
	C397.019257,654.289185 399.020935,653.598267 400.713318,653.533386 
	C423.660522,652.654114 446.620850,651.993164 469.415894,648.814026 
	C539.418152,639.051025 603.159363,614.042908 659.493652,570.936218 
	C685.390991,551.119690 708.081238,528.003540 730.058899,503.986023 
	C756.820862,474.740082 783.949524,445.762756 817.150696,423.365479 
	C842.570557,406.217438 869.956726,393.749207 899.958435,387.176910 
	C901.095520,386.927795 902.277527,386.851715 903.390015,386.528046 
	C907.372498,385.369171 910.805603,386.318665 913.117676,389.686127 
	C915.485596,393.134888 914.435425,396.607788 912.343994,399.950409 
	C903.555603,413.996643 897.102356,429.157776 891.245605,444.591461 
	C886.336670,457.527588 881.350586,470.428833 873.840698,482.149292 
	C861.951904,500.703644 845.961487,514.171875 824.990295,521.493164 
	C821.162903,522.829346 818.433777,521.451599 816.316467,518.534851 
	C814.064453,515.432495 814.528931,512.249878 816.883911,509.341217 
	C818.175232,507.746246 819.965576,506.770142 821.824829,506.035492 
	C843.884216,497.319366 858.319580,480.984100 867.916260,459.863098 
	C875.896912,442.298553 881.475037,423.735748 890.990479,405.647797 
	C880.463745,408.526642 871.346375,411.919464 862.385864,415.872314 
	C827.302551,431.348969 798.703796,455.493683 772.021790,482.436371 
	C751.146973,503.515076 732.025208,526.226196 710.819275,546.989258 
	C656.402344,600.269714 592.686523,636.919006 518.579346,655.151611 
	C492.174347,661.648071 465.405304,665.727966 438.260345,667.405151 
	C420.474243,668.504089 402.701355,669.567566 384.867340,668.405396 
	C377.369324,667.916748 374.678955,664.561462 376.437561,657.354675 
	C378.040161,650.787231 381.156830,644.930786 384.851624,638.932495 
z"/>
<path fill="#ffffff" opacity="1.000000" stroke="none" 
	d="
M545.443604,323.192444 
	C556.370483,322.490509 566.837646,321.791382 577.313843,321.276703 
	C580.634705,321.113586 583.504211,322.242798 585.242249,325.450378 
	C586.902466,328.514313 586.116760,331.162567 584.336548,333.853027 
	C581.619690,337.959045 577.346802,340.474854 574.160889,344.127533 
	C564.205017,355.542023 560.611755,368.686554 562.858643,383.539154 
	C563.593567,388.396973 561.391296,392.156799 557.121155,393.106323 
	C552.781433,394.071350 548.670776,391.887939 547.700867,387.134583 
	C544.614563,372.008698 547.196838,357.700928 554.890625,344.320312 
	C555.720520,342.876984 556.621643,341.474609 557.454529,340.032898 
	C557.609070,339.765472 557.594666,339.400391 557.756226,338.586548 
	C550.264587,337.451019 542.933350,338.914368 535.671448,339.822968 
	C498.079315,344.526611 463.904510,357.957733 433.047516,380.049438 
	C420.381256,389.117615 405.823486,392.762024 390.281372,393.394928 
	C351.154877,394.988342 313.556610,403.936462 277.011047,417.698914 
	C231.651291,434.780609 190.706696,459.362030 153.646820,490.480347 
	C146.129547,496.792450 138.743805,503.315674 133.417435,511.781738 
	C125.128525,524.956726 124.952110,537.488464 134.292999,549.963074 
	C148.743073,569.260864 167.415359,583.623840 189.213547,593.774109 
	C196.787704,597.300903 205.020264,597.717773 213.199463,595.712646 
	C230.919632,591.368347 242.239151,579.285156 251.521759,564.495239 
	C249.341797,562.648132 247.194153,563.575317 245.329544,563.046082 
	C242.381195,562.209351 240.046997,560.699402 239.887360,557.360718 
	C239.729599,554.061157 241.754715,552.148315 244.679276,551.121460 
	C259.626465,545.873230 279.769104,558.935059 281.201447,574.776123 
	C281.535950,578.475586 279.924927,580.968567 276.410309,581.948975 
	C272.807312,582.954163 270.359985,581.253357 268.651825,578.096802 
	C267.582306,576.120300 268.087921,573.357788 265.227051,571.763489 
	C261.229431,578.064026 256.843201,584.050049 251.714203,589.493347 
	C239.594757,602.355225 225.152481,610.597717 207.335175,611.966370 
	C196.449692,612.802490 186.051117,610.224731 176.484894,605.157410 
	C157.599457,595.153748 140.945145,582.044373 126.956230,565.966980 
	C105.345413,541.129822 106.421989,515.115906 129.641434,491.739471 
	C152.588928,468.636932 179.175797,450.270874 207.146149,433.883575 
	C251.275299,408.029083 298.582764,390.685913 349.019684,382.092316 
	C362.634369,379.772614 376.397858,378.372131 390.213776,377.951508 
	C402.504120,377.577393 413.923401,374.691071 424.078094,367.550323 
	C445.341064,352.598328 467.980347,340.452026 493.101074,333.227753 
	C510.105682,328.337524 527.417419,325.156555 545.443604,323.192444 
z"/>
<path fill="#ffffff" opacity="1.000000" stroke="none" 
	d="
M385.990112,488.802490 
	C376.540985,522.030518 369.919342,555.479553 363.287842,588.932312 
	C360.024506,605.394226 358.186646,622.176697 353.203033,638.255859 
	C342.078491,674.148010 318.634003,697.061279 281.163422,703.641602 
	C242.635223,710.407593 200.123337,693.658142 182.288620,655.807556 
	C179.148605,649.143555 176.868973,642.196655 175.692703,634.923889 
	C174.546478,627.836914 176.761810,623.628113 181.862823,622.824158 
	C186.843491,622.039124 189.973175,625.047485 191.214722,632.087524 
	C194.789841,652.359558 205.539169,667.917603 223.066086,678.293518 
	C263.331665,702.130615 324.755341,691.034851 339.365143,628.941528 
	C347.163330,595.798340 352.241821,562.019653 359.749573,528.775330 
	C365.723053,502.324860 372.146301,475.978485 381.089508,450.327698 
	C381.581696,448.915985 382.165161,447.531738 381.700714,445.452209 
	C375.630005,444.760345 369.656799,446.437317 363.706512,447.394012 
	C344.800842,450.433624 325.794250,453.370880 308.772247,462.976410 
	C294.934235,470.785217 285.237701,481.868073 282.382843,498.045990 
	C281.279755,504.296967 277.885010,507.109497 272.732147,506.259674 
	C268.198212,505.511902 265.772156,501.271332 266.882294,495.309448 
	C269.805847,479.609009 277.540985,466.707611 290.092499,456.824341 
	C306.284180,444.074707 325.460083,438.533264 345.237061,434.877655 
	C360.109039,432.128723 375.105286,430.020966 390.083069,427.886078 
	C400.834290,426.353607 404.613007,431.654022 400.732452,441.750000 
	C394.876373,456.985565 390.318024,472.650055 385.990112,488.802490 
z"/>
<path fill="#ffffff" opacity="1.000000" stroke="none" 
	d="
M530.252319,396.594482 
	C584.628723,407.563660 633.361450,429.902039 677.135132,463.263550 
	C689.597046,472.761230 701.512085,482.900757 713.550903,492.901062 
	C714.936829,494.052307 716.266968,495.441315 717.152466,496.989227 
	C719.045471,500.298218 719.194702,503.779297 716.342224,506.652069 
	C713.524109,509.490234 710.068604,509.848907 706.806519,507.510864 
	C703.297424,504.995758 699.955200,502.222748 696.707947,499.371216 
	C664.074036,470.714233 628.677734,446.358917 588.207336,429.997498 
	C557.635132,417.637756 525.791870,410.223999 493.108459,406.245789 
	C490.136932,405.884094 487.143890,405.658356 484.193848,405.169983 
	C479.572052,404.404816 477.051025,401.141754 477.505737,396.776062 
	C477.959442,392.420227 481.155396,389.783142 485.917084,390.198914 
	C500.671539,391.487122 515.329407,393.487213 530.252319,396.594482 
z"/>
<path fill="#ffffff" opacity="1.000000" stroke="none" 
	d="
M846.885132,610.088989 
	C860.621399,617.829895 874.977722,623.119446 889.632385,627.649597 
	C893.039429,628.702759 895.716675,630.327820 896.772217,633.909241 
	C898.543701,639.920044 893.204163,644.670593 886.461731,642.802002 
	C870.686829,638.430237 855.556580,632.431946 841.166077,624.562012 
	C806.402039,605.550110 777.372375,579.486938 750.327209,550.961670 
	C747.577454,548.061462 744.718994,545.258118 742.076843,542.263489 
	C737.157532,536.687805 736.732239,532.299866 740.565796,528.686340 
	C744.216919,525.244751 748.924927,526.289246 753.851440,531.599365 
	C769.713867,548.697021 785.867493,565.508728 803.903076,580.362244 
	C817.293091,591.389771 831.524048,601.245239 846.885132,610.088989 
z"/>
<path fill="#ffffff" opacity="1.000000" stroke="none" 
	d="
M235.013855,500.140503 
	C233.729767,510.260864 229.508011,515.109802 220.873810,516.823608 
	C214.561829,518.076477 206.996368,514.323608 203.721603,508.207916 
	C200.520569,502.229950 200.827042,496.273376 204.707932,490.794769 
	C208.578537,485.330719 214.171219,482.808167 220.786621,483.901978 
	C227.557129,485.021454 232.116425,489.188812 234.213150,495.817474 
	C234.611481,497.076782 234.736343,498.422638 235.013855,500.140503 
z"/>
</svg>